<svg width="876" height="715" viewBox="0 0 876 715" fill="none" xmlns="http://www.w3.org/2000/svg">
<path opacity="0.24" d="M164.181 631.228C122.442 635.51 79.4228 640.217 42.6943 661.158C37.7783 663.967 32.787 667.28 30.0748 672.336C24.6314 682.507 30.8093 695.912 40.3964 702.034C49.9835 708.155 61.812 708.853 73.0942 709.357C273.99 718.287 475.186 714.781 676.251 711.294C734.64 710.286 793.952 709.124 849.911 691.825C859.969 688.725 871.025 684.076 874.811 673.944C879.765 660.694 868.464 646.009 855.279 641.883C842.095 637.757 828.025 640.837 814.388 642.639C767.037 648.896 719.271 639.326 672.126 631.674C579.834 616.719 484.077 604.553 390.598 602.286C358.729 601.531 331.512 612.805 300.321 617.261C255.286 623.731 209.46 626.579 164.181 631.228Z" fill="#808080"/>
<path d="M3.56054e-05 234.049L103.817 17.6635L165.768 48.7075L61.9504 265.093L3.56054e-05 234.049Z" fill="white"/>
<path d="M24.1227 227.384L36.805 200.952L78.5573 221.744L65.875 248.176L24.1227 227.384Z" fill="#808080"/>
<path d="M24.1227 227.384L36.805 200.952L78.5573 221.744L65.875 248.176L24.1227 227.384Z" fill="url(#paint0_linear)"/>
<path d="M36.8069 201.158L49.4892 174.726L91.2415 195.518L78.5592 221.95L36.8069 201.158Z" fill="#808080"/>
<path d="M36.8069 201.158L49.4892 174.726L91.2415 195.518L78.5592 221.95L36.8069 201.158Z" fill="url(#paint1_linear)"/>
<path d="M49.4741 174.924L62.1563 148.492L103.909 169.284L91.2263 195.716L49.4741 174.924Z" fill="#808080"/>
<path d="M49.4741 174.924L62.1563 148.492L103.909 169.284L91.2263 195.716L49.4741 174.924Z" fill="url(#paint2_linear)"/>
<path d="M62.1769 148.717L74.8592 122.285L116.611 143.078L103.929 169.51L62.1769 148.717Z" fill="#808080"/>
<path d="M62.1769 148.717L74.8592 122.285L116.611 143.078L103.929 169.51L62.1769 148.717Z" fill="url(#paint3_linear)"/>
<path d="M74.8524 122.466L87.5346 96.034L129.287 116.826L116.605 143.258L74.8524 122.466Z" fill="#808080"/>
<path d="M87.5363 96.2595L100.219 69.8274L141.971 90.6196L129.289 117.052L87.5363 96.2595Z" fill="#808080"/>
<path d="M100.204 70.0253L112.886 43.5932L154.638 64.3854L141.956 90.8175L100.204 70.0253Z" fill="#808080"/>
<path d="M86.1094 99.5484L98.7916 73.1164L140.544 93.9086L127.862 120.341L86.1094 99.5484Z" fill="url(#paint4_linear)"/>
<path d="M98.8018 73.3054L111.484 46.8734L153.236 67.6656L140.554 94.0976L98.8018 73.3054Z" fill="url(#paint5_linear)"/>
<rect x="368.843" y="525.25" width="88.123" height="75.1667" fill="#808080"/>
<rect x="368.843" y="525.25" width="88.123" height="75.1667" fill="url(#paint6_linear)"/>
<rect x="181.807" y="211.75" width="465.793" height="325.417" rx="9.37" fill="#808080"/>
<path opacity="0.65" d="M632.313 238.735V508.349C632.328 512.823 630.599 517.119 627.508 520.289C624.417 523.46 620.217 525.245 615.835 525.25H209.974C205.594 525.24 201.397 523.453 198.307 520.284C195.217 517.114 193.487 512.821 193.497 508.349V238.735C193.487 234.262 195.217 229.969 198.307 226.8C201.397 223.63 205.594 221.844 209.974 221.833H615.835C620.217 221.838 624.417 223.623 627.508 226.794C630.599 229.965 632.328 234.261 632.313 238.735V238.735Z" fill="url(#paint7_linear)"/>
<rect x="328.378" y="591.25" width="185.238" height="19.25" fill="#808080"/>
<rect x="368.843" y="580.25" width="88.123" height="11" fill="url(#paint8_linear)"/>
<path fill-rule="evenodd" clip-rule="evenodd" d="M508.221 54.3043V73.0717L496.801 73.1677C495.69 81.9001 492.434 90.2095 487.332 97.3328L497.085 107.571L483.714 120.634L474.112 110.53C468.191 114.64 461.51 117.489 454.472 118.905V131.083H435.988V119.193C428.094 118.03 420.57 115.039 413.999 110.453L405.969 118.54L392.882 105.093L400.856 97.16C395.836 90.0343 392.634 81.7584 391.537 73.0717H378.735V54.3043H391.992C393.636 46.8355 396.867 39.8208 401.462 33.7505L394.056 25.9708L407.427 12.9086L415.003 20.9188C421.267 16.6964 428.387 13.9586 435.836 12.9086V0H454.321V13.1967C461.841 14.7167 468.948 17.8686 475.154 22.4363L484.623 12.9854L497.634 26.3166L488.165 35.9211C491.878 41.4949 494.513 47.7332 495.93 54.3043H508.221ZM412.844 66.1372C412.823 83.61 426.771 97.7918 443.999 97.813C452.276 97.8386 460.223 94.5201 466.083 88.5908C471.943 82.6615 475.234 74.6095 475.229 66.214C475.25 48.7411 461.302 34.5593 444.075 34.5381C426.847 34.5169 412.865 48.6643 412.844 66.1372Z" fill="#808080"/>
<path fill-rule="evenodd" clip-rule="evenodd" d="M576.562 85.5747L575.737 96.6129L568.986 96.1927C567.974 101.269 565.723 106.004 562.441 109.962L567.711 116.436L559.31 123.502L554.134 117.142C550.491 119.285 546.46 120.656 542.283 121.172L541.739 128.333L530.919 127.512L531.444 120.523C526.875 119.482 522.601 117.385 518.956 114.392L513.893 118.785L506.823 110.363L511.83 106.047C509.198 101.637 507.684 96.6295 507.423 91.4757L500.129 90.9028L500.935 79.8837L508.679 80.4757C509.959 76.1616 512.14 72.1809 515.074 68.8073L511.08 63.8993L519.481 56.8333L523.55 61.875C527.388 59.6704 531.661 58.3656 536.057 58.0556L536.62 50.4167L547.44 51.2379L546.859 59.0104C551.178 60.2377 555.184 62.4077 558.597 65.3698L564.542 60.2326L571.592 68.6545L565.592 73.8681C567.538 77.3105 568.812 81.1043 569.342 85.0399L576.562 85.5747ZM520.223 88.2227C519.454 98.4828 526.996 107.436 537.07 108.224C541.917 108.613 546.717 107.018 550.406 103.792C554.094 100.566 556.368 95.9751 556.722 91.0365C557.479 80.7754 549.928 71.8308 539.853 71.0541C529.778 70.2774 520.991 77.9625 520.223 88.2227Z" fill="#808080"/>
<path d="M632.313 238.804V244.75H193.497V238.804C193.487 234.313 195.217 230.002 198.308 226.82C201.398 223.637 205.595 221.844 209.976 221.833H615.834C620.216 221.838 624.416 223.63 627.508 226.814C630.599 229.998 632.328 234.312 632.313 238.804V238.804Z" fill="url(#paint9_linear)"/>
<rect x="202.489" y="274.083" width="42.2631" height="208.083" fill="url(#paint10_linear)"/>
<rect x="308.596" y="288.75" width="198.726" height="191.583" fill="url(#paint11_linear)"/>
<rect x="354.456" y="378.583" width="6.2945" height="8.25" fill="url(#paint12_linear)"/>
<rect x="354.456" y="340.083" width="6.2945" height="8.25" fill="url(#paint13_linear)"/>
<rect x="269.031" y="378.583" width="6.2945" height="8.25" fill="url(#paint14_linear)"/>
<rect x="269.031" y="340.083" width="6.2945" height="8.25" fill="url(#paint15_linear)"/>
<rect x="354.456" y="298.833" width="6.2945" height="8.25" fill="url(#paint16_linear)"/>
<rect x="269.93" y="298.833" width="6.2945" height="8.25" fill="url(#paint17_linear)"/>
<rect x="313.092" y="298.833" width="6.2945" height="8.25" fill="url(#paint18_linear)"/>
<rect x="313.092" y="378.583" width="6.2945" height="8.25" fill="url(#paint19_linear)"/>
<path fill-rule="evenodd" clip-rule="evenodd" d="M280.72 376.75H350.859V309.833H280.72V376.75ZM343.794 369.675H287.785V316.851H343.794V369.675Z" fill="#808080"/>
<path fill-rule="evenodd" clip-rule="evenodd" d="M280.72 376.75H350.859V309.833H280.72V376.75ZM343.794 369.675H287.785V316.851H343.794V369.675Z" fill="url(#paint20_linear)"/>
<rect x="536.097" y="255.75" width="89.9214" height="91.6667" fill="url(#paint21_linear)"/>
<rect x="536.097" y="356.583" width="89.9214" height="91.6667" fill="url(#paint22_linear)"/>
<rect opacity="0.65" x="202.489" y="273.167" width="42.2631" height="11.9167" fill="url(#paint23_linear)"/>
<path d="M20.0424 210.674L204.369 59.8517L247.602 114.691L63.2758 265.514L20.0424 210.674Z" fill="white"/>
<path d="M45.853 214.917L68.3784 196.382L97.6567 233.312L75.1312 251.847L45.853 214.917Z" fill="#808080"/>
<path d="M45.853 214.917L68.3784 196.382L97.6567 233.312L75.1312 251.847L45.853 214.917Z" fill="url(#paint24_linear)"/>
<path d="M67.0759 196.798L89.5696 178.347L118.715 215.225L96.2217 233.676L67.0759 196.798Z" fill="#808080"/>
<path d="M67.0759 196.798L89.5696 178.347L118.715 215.225L96.2217 233.676L67.0759 196.798Z" fill="url(#paint25_linear)"/>
<path d="M89.4902 178.531L111.984 160.08L141.13 196.958L118.636 215.409L89.4902 178.531Z" fill="#808080"/>
<path d="M89.4902 178.531L111.984 160.08L141.13 196.958L118.636 215.409L89.4902 178.531Z" fill="url(#paint26_linear)"/>
<path d="M111.89 160.276L134.384 141.825L163.529 178.703L141.036 197.154L111.89 160.276Z" fill="#808080"/>
<path d="M111.89 160.276L134.384 141.825L163.529 178.703L141.036 197.154L111.89 160.276Z" fill="url(#paint27_linear)"/>
<path d="M135.361 141.524L157.887 122.989L187.165 159.918L164.64 178.453L135.361 141.524Z" fill="#808080"/>
<path d="M157.898 122.824L180.423 104.289L209.702 141.219L187.176 159.754L157.898 122.824Z" fill="#808080"/>
<path d="M179.112 105.464L201.605 87.0124L230.751 123.89L208.257 142.341L179.112 105.464Z" fill="#808080"/>
<path d="M206.086 145.033L187.126 160.417L158.427 123.55L177.387 108.167L206.086 145.033V145.033Z" fill="url(#paint28_linear)"/>
<path d="M176.454 107.844L198.948 89.3924L228.094 126.27L205.6 144.721L176.454 107.844Z" fill="url(#paint29_linear)"/>
<path d="M130.551 219.221V331.833H111.668V219.221C111.668 215.059 114.201 211.356 117.975 209.998V198.756C117.975 196.82 119.481 195.25 121.338 195.25C123.196 195.25 124.702 196.82 124.702 198.756V210.189C128.224 211.691 130.532 215.254 130.551 219.221V219.221Z" fill="#808080"/>
<path d="M130.551 219.221V331.833H111.668V219.221C111.668 215.059 114.201 211.356 117.975 209.998V198.756C117.975 196.82 119.481 195.25 121.338 195.25C123.196 195.25 124.702 196.82 124.702 198.756V210.189C128.224 211.691 130.532 215.254 130.551 219.221V219.221Z" fill="url(#paint30_linear)"/>
<rect x="99.9782" y="290.583" width="44.9607" height="8.25" rx="2.245" fill="#808080"/>
<path d="M122.179 365.75V365.75C114.475 365.75 108.071 354.003 108.071 346.165V294.25H135.947V346.165C135.947 354.003 129.863 365.75 122.179 365.75Z" fill="#808080"/>
<rect x="99.9782" y="290.583" width="44.9607" height="8.25" rx="2.245" fill="url(#paint31_linear)"/>
<path d="M122.179 365.75V365.75C114.475 365.75 108.071 354.169 108.071 346.442V298.833H135.947V346.442C135.947 354.169 129.863 365.75 122.179 365.75Z" fill="url(#paint32_linear)"/>
<path d="M301.98 420.75C301.375 417.483 300.993 412.858 302.155 412.54C304.606 411.836 301.98 420.75 301.98 420.75Z" fill="#28353D"/>
<path d="M430.711 599.964C430.274 611.51 421.502 653.939 421.217 665.504C421.217 669.352 422.224 675.26 421.008 678.973C418.502 686.843 409.616 685.766 408.457 681.129L408.021 678.819C403.9 656.344 410.527 630.848 408.021 601.504C406.521 583.589 399.533 549.049 394.957 548.818C392.546 548.818 337.5 667.197 332.715 674.49C330.361 678.165 323.734 677.588 320.525 680.551C317.316 683.515 347.26 590.805 359.811 541.814C362.738 531.703 364.646 521.316 365.507 510.815C365.849 504.753 363.931 502.714 369.419 500.924C373.216 499.693 378.476 500.039 382.539 499.75C386.963 499.404 428.11 499.327 428.11 502.29C427.711 518.377 431.774 573.295 430.711 599.964Z" fill="#606161"/>
<path d="M430.711 599.964C430.274 611.51 421.502 653.939 421.217 665.504C421.217 669.352 422.224 675.26 421.008 678.973C418.502 686.843 409.616 685.766 408.457 681.129L408.021 678.819C403.9 656.344 410.527 630.848 408.021 601.504C406.521 583.589 399.533 549.049 394.957 548.818C392.546 548.818 337.5 667.197 332.715 674.49C330.361 678.165 323.734 677.588 320.525 680.551C317.316 683.515 347.26 590.805 359.811 541.814C362.738 531.703 364.646 521.316 365.507 510.815C365.849 504.753 363.931 502.714 369.419 500.924C373.216 499.693 378.476 500.039 382.539 499.75C386.963 499.404 428.11 499.327 428.11 502.29C427.711 518.377 431.774 573.295 430.711 599.964Z" fill="url(#paint33_linear)"/>
<path d="M382.122 353.969C381.776 350.316 380.084 348.333 378.431 348.333C376.777 348.333 375.758 350.277 376.104 353.969C376.183 356.695 378.199 358.964 380.872 359.333C382.544 359.333 382.487 357.623 382.122 353.969Z" fill="#FFCD9C"/>
<path d="M411.23 353.979C411.455 350.319 413.105 348.333 414.812 348.333C416.518 348.333 417.625 350.28 417.362 353.979C417.338 356.742 415.321 359.046 412.674 359.333C410.986 359.333 410.968 357.64 411.23 353.979Z" fill="#FFCD9C"/>
<path d="M414.577 370.032C414.344 371.963 406.333 380.417 397.217 380.417C388.1 380.417 380.574 372.696 378.984 369.608C377.393 366.519 383.794 326.797 387.499 323.477C391.204 320.157 406.217 322.338 407.478 324.094C410.504 328.244 415.566 362.331 414.577 370.032Z" fill="#F4AD7D"/>
<path d="M410.808 340.062C409.569 340.669 404.703 328.021 403.682 325.898C402.661 323.774 402.825 321.593 404.065 320.987C405.304 320.38 407.127 321.631 408.147 323.736C409.168 325.841 412.03 339.474 410.808 340.062Z" fill="#FFCD9C"/>
<path d="M383.518 339.155C382.232 338.709 385.636 325.58 386.378 323.312C387.121 321.043 388.786 319.549 389.999 319.995C391.212 320.441 391.719 322.652 390.977 324.94C390.235 327.229 384.731 339.601 383.518 339.155Z" fill="#FFCD9C"/>
<path d="M388.619 368.5H408.176L411.106 387.404C400.453 393.254 394.241 392.609 385.928 386.113L388.619 368.5Z" fill="#F4AD7D"/>
<path d="M396.719 372.286C396.719 371.938 397.532 371.644 398.517 371.644C399.502 371.644 400.316 371.938 400.316 372.286C400.316 372.634 399.524 372.689 398.517 372.689C397.511 372.689 396.719 372.653 396.719 372.286Z" fill="#F4AD7D"/>
<path d="M415.619 363.74C416.36 359.236 417.567 326.983 414.606 322.713C411.645 318.444 393.917 315.683 391.229 316.349C385.209 317.837 386.261 322.224 386.261 322.224C384.472 322.251 382.721 322.744 381.177 323.653C379.112 325.063 374.768 345.391 378.235 360.764C379.794 367.677 385.93 373.689 396.528 373.982C409.58 374.335 414.723 369.322 415.619 363.74Z" fill="#606161"/>
<path d="M391.302 317.865C392.704 316.661 394.519 316.092 396.334 316.288C401.844 316.258 407.312 317.295 412.45 319.345C415.299 320.364 417.886 322.035 420.016 324.233C422.161 326.492 423.149 329.658 422.683 332.781C421.737 337.376 417.008 340.219 415.457 344.64C414.209 348.184 415.098 351.611 415.136 355.174C415.161 358.055 414.958 360.934 414.53 363.781C413.66 369.331 408.686 374.315 395.918 373.984C385.628 373.692 379.669 367.714 378.156 360.841C376.108 349.432 376.645 337.69 379.726 326.53C385.272 327.844 390.946 328.498 396.636 328.478C402.671 328.529 408.687 327.81 414.549 326.336C415.552 332.294 415.533 344.231 415.211 353.149" fill="#606161"/>
<path d="M359.736 384.041C356.65 384.304 353.677 385.352 351.087 387.09C346.65 390.657 346.313 397.311 346.388 403.102C346.236 411.126 346.781 419.148 348.017 427.073C349.346 434.34 351.761 441.321 353.745 448.435C356.873 460.012 358.516 471.957 358.632 483.969C358.632 490.565 358.519 497.814 362.544 502.972C366.944 508.572 374.732 509.665 381.733 510.068C391.674 510.662 401.653 510.739 411.594 510.317C418.258 510.01 425.354 509.339 430.633 505.159C434.845 501.822 444.711 388.931 437.054 386.074C429.397 383.216 421.16 382.488 413.035 381.797C394.819 380.225 377.671 378.978 359.736 384.041Z" fill="#808080"/>
<path d="M417.083 618.1C416.107 630.901 413.778 677.417 413.778 677.417L407.843 677.206C403.767 654.857 410.322 629.504 407.843 600.324C406.359 582.51 399.447 548.163 394.92 547.934C396.273 536.453 403.88 538.175 403.88 538.175C409.412 546.603 414.183 555.524 418.135 564.829C422.662 576.922 418.079 605.241 417.083 618.1Z" fill="url(#paint34_linear)"/>
<path d="M305.337 678.355C304.411 679.054 303.707 680.011 303.314 681.107C303.103 682.008 303.188 682.954 303.557 683.802C304.605 685.965 306.592 687.517 308.935 688.004C311.25 688.454 313.621 688.536 315.961 688.249L323.456 687.741C325.363 687.695 327.255 687.384 329.077 686.817C330.902 686.241 332.407 684.931 333.237 683.199C333.678 681.923 333.851 680.568 333.743 679.222C333.743 672.984 331.569 667.914 324.786 669.441C317.682 670.785 311.007 673.844 305.337 678.355V678.355Z" fill="#808080"/>
<path d="M429.827 681.141C430.678 681.779 431.324 682.65 431.684 683.647C431.877 684.459 431.801 685.31 431.469 686.076C430.514 688.035 428.691 689.438 426.542 689.864C424.424 690.282 422.252 690.361 420.109 690.098L413.304 689.631C411.574 689.594 409.856 689.319 408.201 688.815C406.532 688.292 405.158 687.103 404.408 685.532C404.005 684.378 403.846 683.155 403.938 681.938C403.938 676.303 405.894 671.66 412.131 673.097C418.598 674.317 424.67 677.077 429.827 681.141V681.141Z" fill="#808080"/>
<path d="M438.083 385.917C438.083 385.917 467.481 403.483 476.31 425.69C485.139 447.896 447.394 501.417 447.394 501.417L439.317 492.996C439.317 492.996 459.018 452.612 455.972 442.511C452.926 432.411 440.994 422.997 440.994 422.997L438.083 385.917Z" fill="#808080"/>
<path d="M354.456 420.621C354.456 420.621 313.58 439.303 296.97 430.135C280.36 420.967 297.46 374.917 297.46 374.917L308.584 378.769C308.584 378.769 299.289 402.247 309.923 405.733C320.556 409.219 352.42 386.319 352.42 386.319L354.456 420.621Z" fill="#808080"/>
<path d="M431.412 500.478C430.236 501.257 429.283 502.304 428.639 503.522C428.253 504.556 428.114 505.66 428.232 506.751C428.161 509.4 429.342 511.939 431.45 513.67C432.932 514.479 434.591 514.947 436.297 515.035C437.342 515.21 438.411 515.21 439.457 515.035C440.523 514.842 441.413 514.147 441.822 513.19C441.961 512.585 442.02 511.965 441.996 511.345C442.132 508.301 444.38 505.81 446.241 503.319C446.691 502.838 446.981 502.241 447.075 501.604C447.064 500.898 446.805 500.215 446.338 499.666C445.078 497.932 441.957 494.74 439.457 495.017C436.956 495.294 433.35 498.965 431.412 500.478Z" fill="#F4AD7D"/>
<path d="M315.6 367.982C316.133 367.227 316.496 366.372 316.666 365.473C316.802 364.542 316.32 363.63 315.462 363.194C314.1 362.676 312.481 364.036 311.138 363.462C310.684 363.215 310.303 362.859 310.032 362.427C308.447 360.2 307.537 357.585 307.407 354.881C307.484 353.44 307.351 351.996 307.012 350.591C306.612 349.145 305.19 348.195 303.655 348.35C302.392 348.637 301.681 349.882 300.891 350.878C300.102 351.874 298.522 353.061 297.495 354.306C295.743 356.865 294.739 359.837 294.593 362.906C294.04 366.737 293.685 371.123 296.449 373.881C298.581 376.007 305.077 378.516 308.058 377.386C311.355 376.122 313.942 370.74 315.6 367.982Z" fill="#F4AD7D"/>
<defs>
<linearGradient id="paint0_linear" x1="135.717" y1="288.902" x2="195.775" y2="172.011" gradientUnits="userSpaceOnUse">
<stop stop-color="#010101" stop-opacity="0.01"/>
<stop offset="0.95" stop-color="#010101"/>
</linearGradient>
<linearGradient id="paint1_linear" x1="185.284" y1="285.418" x2="271.388" y2="120.35" gradientUnits="userSpaceOnUse">
<stop stop-color="#010101" stop-opacity="0.01"/>
<stop offset="0.95" stop-color="#010101"/>
</linearGradient>
<linearGradient id="paint2_linear" x1="293.099" y1="293.418" x2="420.689" y2="11.0009" gradientUnits="userSpaceOnUse">
<stop stop-color="#010101" stop-opacity="0.01"/>
<stop offset="0.95" stop-color="#010101"/>
</linearGradient>
<linearGradient id="paint3_linear" x1="407.97" y1="308.534" x2="598.26" y2="-98.7166" gradientUnits="userSpaceOnUse">
<stop stop-color="#010101" stop-opacity="0.01"/>
<stop offset="0.36" stop-color="#010101" stop-opacity="0.36"/>
<stop offset="0.95" stop-color="#010101"/>
</linearGradient>
<linearGradient id="paint4_linear" x1="274.391" y1="212.267" x2="383.107" y2="-7.49501" gradientUnits="userSpaceOnUse">
<stop stop-color="white" stop-opacity="0.01"/>
<stop offset="0.07" stop-color="white" stop-opacity="0.22"/>
<stop offset="0.16" stop-color="white" stop-opacity="0.45"/>
<stop offset="0.25" stop-color="white" stop-opacity="0.65"/>
<stop offset="0.33" stop-color="white" stop-opacity="0.8"/>
<stop offset="0.4" stop-color="white" stop-opacity="0.91"/>
<stop offset="0.46" stop-color="white" stop-opacity="0.98"/>
<stop offset="0.51" stop-color="white"/>
</linearGradient>
<linearGradient id="paint5_linear" x1="204.233" y1="163.574" x2="263.822" y2="39.9254" gradientUnits="userSpaceOnUse">
<stop stop-color="white" stop-opacity="0.01"/>
<stop offset="0.07" stop-color="white" stop-opacity="0.22"/>
<stop offset="0.16" stop-color="white" stop-opacity="0.45"/>
<stop offset="0.25" stop-color="white" stop-opacity="0.65"/>
<stop offset="0.33" stop-color="white" stop-opacity="0.8"/>
<stop offset="0.4" stop-color="white" stop-opacity="0.91"/>
<stop offset="0.46" stop-color="white" stop-opacity="0.98"/>
<stop offset="0.51" stop-color="white"/>
</linearGradient>
<linearGradient id="paint6_linear" x1="478.593" y1="587.878" x2="488.335" y2="471.734" gradientUnits="userSpaceOnUse">
<stop stop-color="#010101" stop-opacity="0.01"/>
<stop offset="0.95" stop-color="#010101"/>
</linearGradient>
<linearGradient id="paint7_linear" x1="117.617" y1="163.64" x2="115.078" y2="575.731" gradientUnits="userSpaceOnUse">
<stop stop-color="white" stop-opacity="0.01"/>
<stop offset="0.07" stop-color="white" stop-opacity="0.22"/>
<stop offset="0.16" stop-color="white" stop-opacity="0.45"/>
<stop offset="0.25" stop-color="white" stop-opacity="0.65"/>
<stop offset="0.33" stop-color="white" stop-opacity="0.8"/>
<stop offset="0.4" stop-color="white" stop-opacity="0.91"/>
<stop offset="0.46" stop-color="white" stop-opacity="0.98"/>
<stop offset="0.51" stop-color="white"/>
</linearGradient>
<linearGradient id="paint8_linear" x1="-110.315" y1="564.734" x2="-110.221" y2="695.114" gradientUnits="userSpaceOnUse">
<stop stop-color="#010101" stop-opacity="0.01"/>
<stop offset="0.95" stop-color="#010101"/>
</linearGradient>
<linearGradient id="paint9_linear" x1="925.234" y1="331.802" x2="957.191" y2="-41.2768" gradientUnits="userSpaceOnUse">
<stop stop-color="white" stop-opacity="0.01"/>
<stop offset="0.07" stop-color="white" stop-opacity="0.22"/>
<stop offset="0.16" stop-color="white" stop-opacity="0.45"/>
<stop offset="0.25" stop-color="white" stop-opacity="0.65"/>
<stop offset="0.33" stop-color="white" stop-opacity="0.8"/>
<stop offset="0.4" stop-color="white" stop-opacity="0.91"/>
<stop offset="0.46" stop-color="white" stop-opacity="0.98"/>
<stop offset="0.51" stop-color="white"/>
</linearGradient>
<linearGradient id="paint10_linear" x1="182.206" y1="230.881" x2="310.615" y2="566.783" gradientUnits="userSpaceOnUse">
<stop stop-color="white" stop-opacity="0.01"/>
<stop offset="0.07" stop-color="white" stop-opacity="0.22"/>
<stop offset="0.16" stop-color="white" stop-opacity="0.45"/>
<stop offset="0.25" stop-color="white" stop-opacity="0.65"/>
<stop offset="0.33" stop-color="white" stop-opacity="0.8"/>
<stop offset="0.4" stop-color="white" stop-opacity="0.91"/>
<stop offset="0.46" stop-color="white" stop-opacity="0.98"/>
<stop offset="0.51" stop-color="white"/>
</linearGradient>
<linearGradient id="paint11_linear" x1="275.238" y1="252.074" x2="272.128" y2="511.222" gradientUnits="userSpaceOnUse">
<stop stop-color="white" stop-opacity="0.01"/>
<stop offset="0.07" stop-color="white" stop-opacity="0.22"/>
<stop offset="0.16" stop-color="white" stop-opacity="0.45"/>
<stop offset="0.25" stop-color="white" stop-opacity="0.65"/>
<stop offset="0.33" stop-color="white" stop-opacity="0.8"/>
<stop offset="0.4" stop-color="white" stop-opacity="0.91"/>
<stop offset="0.46" stop-color="white" stop-opacity="0.98"/>
<stop offset="0.51" stop-color="white"/>
</linearGradient>
<linearGradient id="paint12_linear" x1="559.044" y1="427.812" x2="576.986" y2="-101.923" gradientUnits="userSpaceOnUse">
<stop stop-color="#010101" stop-opacity="0.01"/>
<stop offset="0.95" stop-color="#010101"/>
</linearGradient>
<linearGradient id="paint13_linear" x1="558.279" y1="428.124" x2="576.22" y2="-101.611" gradientUnits="userSpaceOnUse">
<stop stop-color="#010101" stop-opacity="0.01"/>
<stop offset="0.95" stop-color="#010101"/>
</linearGradient>
<linearGradient id="paint14_linear" x1="473.65" y1="425.658" x2="491.618" y2="-104.077" gradientUnits="userSpaceOnUse">
<stop stop-color="#010101" stop-opacity="0.01"/>
<stop offset="0.95" stop-color="#010101"/>
</linearGradient>
<linearGradient id="paint15_linear" x1="472.885" y1="425.97" x2="490.853" y2="-103.765" gradientUnits="userSpaceOnUse">
<stop stop-color="#010101" stop-opacity="0.01"/>
<stop offset="0.95" stop-color="#010101"/>
</linearGradient>
<linearGradient id="paint16_linear" x1="557.435" y1="429.5" x2="575.404" y2="-100.235" gradientUnits="userSpaceOnUse">
<stop stop-color="#010101" stop-opacity="0.01"/>
<stop offset="0.95" stop-color="#010101"/>
</linearGradient>
<linearGradient id="paint17_linear" x1="472.94" y1="427.383" x2="490.882" y2="-102.352" gradientUnits="userSpaceOnUse">
<stop stop-color="#010101" stop-opacity="0.01"/>
<stop offset="0.95" stop-color="#010101"/>
</linearGradient>
<linearGradient id="paint18_linear" x1="516.064" y1="428.447" x2="534.032" y2="-101.269" gradientUnits="userSpaceOnUse">
<stop stop-color="#010101" stop-opacity="0.01"/>
<stop offset="0.95" stop-color="#010101"/>
</linearGradient>
<linearGradient id="paint19_linear" x1="517.696" y1="426.106" x2="535.664" y2="-103.629" gradientUnits="userSpaceOnUse">
<stop stop-color="#010101" stop-opacity="0.01"/>
<stop offset="0.95" stop-color="#010101"/>
</linearGradient>
<linearGradient id="paint20_linear" x1="207.612" y1="439.449" x2="420.157" y2="633.863" gradientUnits="userSpaceOnUse">
<stop stop-color="white" stop-opacity="0.01"/>
<stop offset="0.07" stop-color="white" stop-opacity="0.22"/>
<stop offset="0.16" stop-color="white" stop-opacity="0.45"/>
<stop offset="0.25" stop-color="white" stop-opacity="0.65"/>
<stop offset="0.33" stop-color="white" stop-opacity="0.8"/>
<stop offset="0.4" stop-color="white" stop-opacity="0.91"/>
<stop offset="0.46" stop-color="white" stop-opacity="0.98"/>
<stop offset="0.51" stop-color="white"/>
</linearGradient>
<linearGradient id="paint21_linear" x1="521.101" y1="238.208" x2="519.431" y2="362.106" gradientUnits="userSpaceOnUse">
<stop stop-color="white" stop-opacity="0.01"/>
<stop offset="0.07" stop-color="white" stop-opacity="0.22"/>
<stop offset="0.16" stop-color="white" stop-opacity="0.45"/>
<stop offset="0.25" stop-color="white" stop-opacity="0.65"/>
<stop offset="0.33" stop-color="white" stop-opacity="0.8"/>
<stop offset="0.4" stop-color="white" stop-opacity="0.91"/>
<stop offset="0.46" stop-color="white" stop-opacity="0.98"/>
<stop offset="0.51" stop-color="white"/>
</linearGradient>
<linearGradient id="paint22_linear" x1="521.101" y1="339.042" x2="519.431" y2="462.939" gradientUnits="userSpaceOnUse">
<stop stop-color="white" stop-opacity="0.01"/>
<stop offset="0.07" stop-color="white" stop-opacity="0.22"/>
<stop offset="0.16" stop-color="white" stop-opacity="0.45"/>
<stop offset="0.25" stop-color="white" stop-opacity="0.65"/>
<stop offset="0.33" stop-color="white" stop-opacity="0.8"/>
<stop offset="0.4" stop-color="white" stop-opacity="0.91"/>
<stop offset="0.46" stop-color="white" stop-opacity="0.98"/>
<stop offset="0.51" stop-color="white"/>
</linearGradient>
<linearGradient id="paint23_linear" x1="194.157" y1="270.674" x2="194.141" y2="287.358" gradientUnits="userSpaceOnUse">
<stop stop-color="white" stop-opacity="0.01"/>
<stop offset="0.07" stop-color="white" stop-opacity="0.22"/>
<stop offset="0.16" stop-color="white" stop-opacity="0.45"/>
<stop offset="0.25" stop-color="white" stop-opacity="0.65"/>
<stop offset="0.33" stop-color="white" stop-opacity="0.8"/>
<stop offset="0.4" stop-color="white" stop-opacity="0.91"/>
<stop offset="0.46" stop-color="white" stop-opacity="0.98"/>
<stop offset="0.51" stop-color="white"/>
</linearGradient>
<linearGradient id="paint24_linear" x1="121.64" y1="319.047" x2="225.117" y2="239.086" gradientUnits="userSpaceOnUse">
<stop stop-color="#010101" stop-opacity="0.01"/>
<stop offset="0.95" stop-color="#010101"/>
</linearGradient>
<linearGradient id="paint25_linear" x1="166.425" y1="337.322" x2="313.505" y2="225.465" gradientUnits="userSpaceOnUse">
<stop stop-color="#010101" stop-opacity="0.01"/>
<stop offset="0.95" stop-color="#010101"/>
</linearGradient>
<linearGradient id="paint26_linear" x1="260.727" y1="391.189" x2="494.85" y2="191.643" gradientUnits="userSpaceOnUse">
<stop stop-color="#010101" stop-opacity="0.01"/>
<stop offset="0.95" stop-color="#010101"/>
</linearGradient>
<linearGradient id="paint27_linear" x1="358.457" y1="454.543" x2="701.645" y2="169.406" gradientUnits="userSpaceOnUse">
<stop stop-color="#010101" stop-opacity="0.01"/>
<stop offset="0.36" stop-color="#010101" stop-opacity="0.36"/>
<stop offset="0.95" stop-color="#010101"/>
</linearGradient>
<linearGradient id="paint28_linear" x1="222.104" y1="237.188" x2="388.706" y2="119.857" gradientUnits="userSpaceOnUse">
<stop stop-color="white" stop-opacity="0.01"/>
<stop offset="0.07" stop-color="white" stop-opacity="0.22"/>
<stop offset="0.16" stop-color="white" stop-opacity="0.45"/>
<stop offset="0.25" stop-color="white" stop-opacity="0.65"/>
<stop offset="0.33" stop-color="white" stop-opacity="0.8"/>
<stop offset="0.4" stop-color="white" stop-opacity="0.91"/>
<stop offset="0.46" stop-color="white" stop-opacity="0.98"/>
<stop offset="0.51" stop-color="white"/>
</linearGradient>
<linearGradient id="paint29_linear" x1="234.337" y1="235.14" x2="340.124" y2="149.34" gradientUnits="userSpaceOnUse">
<stop stop-color="white" stop-opacity="0.01"/>
<stop offset="0.07" stop-color="white" stop-opacity="0.22"/>
<stop offset="0.16" stop-color="white" stop-opacity="0.45"/>
<stop offset="0.25" stop-color="white" stop-opacity="0.65"/>
<stop offset="0.33" stop-color="white" stop-opacity="0.8"/>
<stop offset="0.4" stop-color="white" stop-opacity="0.91"/>
<stop offset="0.46" stop-color="white" stop-opacity="0.98"/>
<stop offset="0.51" stop-color="white"/>
</linearGradient>
<linearGradient id="paint30_linear" x1="113.554" y1="387.516" x2="147.867" y2="387.535" gradientUnits="userSpaceOnUse">
<stop stop-color="white" stop-opacity="0.01"/>
<stop offset="0.07" stop-color="white" stop-opacity="0.22"/>
<stop offset="0.16" stop-color="white" stop-opacity="0.45"/>
<stop offset="0.25" stop-color="white" stop-opacity="0.65"/>
<stop offset="0.33" stop-color="white" stop-opacity="0.8"/>
<stop offset="0.4" stop-color="white" stop-opacity="0.91"/>
<stop offset="0.46" stop-color="white" stop-opacity="0.98"/>
<stop offset="0.51" stop-color="white"/>
</linearGradient>
<linearGradient id="paint31_linear" x1="47.6945" y1="298.1" x2="58.553" y2="333.485" gradientUnits="userSpaceOnUse">
<stop stop-color="#010101" stop-opacity="0.01"/>
<stop offset="0.95" stop-color="#010101"/>
</linearGradient>
<linearGradient id="paint32_linear" x1="69.9779" y1="434.438" x2="160.649" y2="436.238" gradientUnits="userSpaceOnUse">
<stop stop-color="#010101" stop-opacity="0.01"/>
<stop offset="0.95" stop-color="#010101"/>
</linearGradient>
<linearGradient id="paint33_linear" x1="431.905" y1="578.886" x2="342.964" y2="429.379" gradientUnits="userSpaceOnUse">
<stop stop-color="#010101" stop-opacity="0.01"/>
<stop offset="0.95" stop-color="#010101"/>
</linearGradient>
<linearGradient id="paint34_linear" x1="432.823" y1="155.734" x2="277.465" y2="160.024" gradientUnits="userSpaceOnUse">
<stop stop-color="#010101" stop-opacity="0.01"/>
<stop offset="0.95" stop-color="#010101"/>
</linearGradient>
</defs>
</svg>
